# xmcd CD database file
#
# Track frame offsets:
#	150
#	14589
#	34952
#	56033
#	77971
#	95494
#	110928
#	132998
#	155041
#	176274
#	190746
#	209816
#	228850
#
# Disc length: 3322 seconds
#
# Revision: 3
# Processed by: cddbd v1.5.2PL0 Copyright (c) Steve Scherf et al.
# Submitted via: CDex 1.70beta3
#
DISCID=bc0cf80d
DTITLE=関ジャニ∞ - 8UPPERS(Disc-1)
DYEAR=2010
DGENRE=JPop
TTITLE0=Oriental Surfer
TTITLE1=モノグラム
TTITLE2=泣かないで 僕のミュージック
TTITLE3=Baby Baby
TTITLE4=LIFE ～目の前の向こうへ～
TTITLE5=BACK OFF
TTITLE6=願い
TTITLE7=ほろりメロディー
TTITLE8=Wonderful World!!
TTITLE9=realize
TTITLE10=BOY
TTITLE11=アニマル・マジック
TTITLE12=急☆上☆Show!!
EXTD=YEAR: 2010
EXTT0=
EXTT1=
EXTT2=
EXTT3=
EXTT4=
EXTT5=
EXTT6=
EXTT7=
EXTT8=
EXTT9=
EXTT10=
EXTT11=
EXTT12=
PLAYORDER=
